# xmcd
#
# Track frame offsets: 
#        150
#        15561
#        34956
#        51498
#        68375
#        82972
#        108359
#        122292
#        140044
#
# Disc length: 2138 seconds
#
# Revision: 0
# Processed by: cddbd v1.5.2PL0 Copyright (c) Steve Scherf et al.
# Submitted via: ExactAudioCopy v0.95b3
#
DISCID=6f085809
DTITLE=Bloodrock  - Whirlwind Tongues (Vinyl)  
DYEAR=1900
DGENRE=
TTITLE0=It's Gonna Be Love
TTITLE1=Sunday Song
TTITLE2=Parallax
TTITLE3=Voices
TTITLE4=Eleanor Rigby
TTITLE5=Stilled By Whirlwind Tongues
TTITLE6=Guess What I Am
TTITLE7=Lady Of Love
TTITLE8=Jungle
EXTD=
EXTT0=
EXTT1=
EXTT2=
EXTT3=
EXTT4=
EXTT5=
EXTT6=
EXTT7=
EXTT8=
PLAYORDER=
